<svg xmlns="http://www.w3.org/2000/svg" viewBox="0 0 215.06 41.25"><defs><style>.cls-1{fill:#fff;}</style></defs><title>fugazi_logo</title><g id="Layer_2" data-name="Layer 2"><g id="Layer_1-2" data-name="Layer 1"><path class="cls-1" d="M0,39.29q3.54-.38,4.41-1.3t.86-4.8v-26Q5.27,4,4.31,3T0,1.82V.7H32l.21,8.58H30.5q-.62-4.11-2.31-5.21T21.47,3H13.25Q12,3,11.71,3.4A2.69,2.69,0,0,0,11.37,5V18.4h8.7q3.84,0,4.89-1.14t1.7-4.61h1.41V26.51H26.66Q26,23,24.93,21.9t-4.86-1.13h-8.7V33.9q0,3.29,1,4.21t4.41,1.18V40.4H0Z"/><path class="cls-1" d="M52.54.7V1.82Q49.08,2.05,48.05,3T47,7.21V26.4a17.06,17.06,0,0,0,1.29,7.35q2.4,4.8,9.11,4.8,7.35,0,9.87-4.92,1.41-2.75,1.41-8.5V9.52q0-4.89-1.17-6.14T63.08,1.82V.7H77V1.82q-3.49.38-4.56,1.68t-1.07,6V25.14q0,6.21-1.9,9.7-3.52,6.42-13.36,6.42T42.84,34.92a18.28,18.28,0,0,1-1.9-9V7.21q0-3.28-1-4.2T35.52,1.82V.7Z"/><path class="cls-1" d="M104.09,1a28.17,28.17,0,0,0,3.87,1,2.69,2.69,0,0,0,1.83-.5A3.92,3.92,0,0,0,110.71,0H112l.47,12.63h-1.38a23,23,0,0,0-3.81-6.5,12.12,12.12,0,0,0-9.23-3.75A13.93,13.93,0,0,0,87.93,6.75q-4.38,4.38-4.38,14.43,0,8.29,4.37,12.95A14.19,14.19,0,0,0,98.7,38.79a18.72,18.72,0,0,0,2.55-.21,15.64,15.64,0,0,0,2.78-.64,8.16,8.16,0,0,0,2.67-1.21,2,2,0,0,0,.53-1.51V25.66q0-3.48-1-4.33t-4.29-1.06V19.16h15.29v1.11a5.73,5.73,0,0,0-3,.73q-1.23.94-1.23,3.87V36.68q0,1.05-5.17,2.81a30.86,30.86,0,0,1-9.95,1.76,22.11,22.11,0,0,1-14.82-5.13q-6.65-5.65-6.65-15.18a20.89,20.89,0,0,1,5.3-14.36Q87.59,0,97.23,0A24.74,24.74,0,0,1,104.09,1Z"/><path class="cls-1" d="M115.24,40.4V39.29a4.87,4.87,0,0,0,3.47-1.74q1.16-1.48,4-8.1L135.18,0h1.19l14.95,34a14.34,14.34,0,0,0,2.39,4.18,5.69,5.69,0,0,0,3,1.09V40.4H141.46V39.29a13.46,13.46,0,0,0,3.39-.57q.76-.34.76-1.65a7.26,7.26,0,0,0-.29-1.54,16.73,16.73,0,0,0-.82-2.33l-2.4-5.77H126.28q-2.34,5.89-2.79,7.19a6.66,6.66,0,0,0-.45,2.06,2.12,2.12,0,0,0,1.23,2.1,9.78,9.78,0,0,0,2.87.52V40.4ZM141.08,25,134.2,8.47,127.3,25Z"/><path class="cls-1" d="M159.1,39.73,185.4,3H171.58q-5.21,0-7.41,2.61A12.22,12.22,0,0,0,162.08,11h-1.55L161.73.7H193.4v.67L167.09,38.12h15.57q5.3,0,7.73-2.49,1.51-1.58,2.72-5.77h1.41L193,40.4H159.1Z"/><path class="cls-1" d="M197.3,39.29Q201,39,202,38.19t1.08-4.3V7.21q0-3.31-1.08-4.26T197.3,1.82V.7h17.75V1.82q-3.66.18-4.75,1.13t-1.08,4.26V33.9q0,3.47,1.08,4.3t4.75,1.09V40.4H197.3Z"/></g></g></svg>